<svg width="128" height="128" viewBox="0 0 128 128" fill="none" xmlns="http://www.w3.org/2000/svg">
<rect width="128" height="128" fill="#FAFAFA"/>
<g clip-path="url(#clip0_401:2878)">
<path d="M47.6956 86.9424C46.6319 89.1643 46.8347 91.7929 48.2264 93.8214C49.618 95.8499 51.9828 96.9639 54.415 96.7369C56.8472 96.5098 58.97 94.9768 59.9704 92.7251L80.9645 41.0576C82.0281 38.8356 81.8253 36.2071 80.4337 34.1786C79.0421 32.1501 76.6773 31.0361 74.2451 31.2631C71.8128 31.4902 69.69 33.0231 68.6897 35.2749L47.6956 86.9424Z" fill="url(#paint0_linear_401:2878)"/>
<path d="M102.025 87.0159C103.049 89.2358 102.823 91.8388 101.432 93.8445C100.042 95.8502 97.6989 96.9538 95.2854 96.7396C92.8718 96.5255 90.7547 95.0261 89.7314 92.8062L68.7159 41.0705C67.6512 38.8457 67.8542 36.2136 69.2472 34.1825C70.6403 32.1513 73.0075 31.0358 75.4422 31.2632C77.8769 31.4905 80.0018 33.0255 81.0032 35.2802L102.025 87.0159Z" fill="#4F7DFF"/>
<path d="M59.9845 87.0146C61.5663 90.4461 60.0966 94.524 56.7018 96.1229C53.3071 97.7218 49.2728 96.2362 47.691 92.8047L26.6765 41.0703C25.6118 38.8455 25.8148 36.2135 27.2078 34.1824C28.6008 32.1513 30.9679 31.0358 33.4025 31.2632C35.8371 31.4905 37.9619 33.0255 38.9632 35.2801L59.9845 87.0146Z" fill="#692ED1"/>
</g>
<defs>
<linearGradient id="paint0_linear_401:2878" x1="47.0658" y1="96.6916" x2="81.6078" y2="96.6916" gradientUnits="userSpaceOnUse">
<stop stop-color="#692ED1"/>
<stop offset="0.08" stop-color="#6734D5"/>
<stop offset="1" stop-color="#4F7DFF"/>
</linearGradient>
<clipPath id="clip0_401:2878">
<rect width="77" height="65.5319" fill="white" transform="translate(26 31.234)"/>
</clipPath>
</defs>
</svg>
